<?xml version="1.0" encoding="UTF-8" standalone="no"?><!-- Generator: Gravit.io --><svg xmlns="http://www.w3.org/2000/svg" xmlns:xlink="http://www.w3.org/1999/xlink" style="isolation:isolate" viewBox="0 0 1135.185 542.987" width="1135.185pt" height="542.987pt"><defs><clipPath id="_clipPath_IrZTuLTC4nAa7XiRF487Q427xFo8CFVq"><rect width="1135.185" height="542.987"/></clipPath></defs><g clip-path="url(#_clipPath_IrZTuLTC4nAa7XiRF487Q427xFo8CFVq)"><rect width="1135.185" height="542.987" style="fill:rgb(35,18,58)" fill-opacity="0"/><path d=" M 455.344 426.698 L 414.156 430.668 C 412.525 430.823 410.979 430.358 409.755 429.455 L 409.755 429.45 C 408.336 428.416 407.348 426.79 407.164 424.9 L 403.194 383.718 C 402.855 380.19 405.435 377.058 408.963 376.719 L 450.145 372.75 C 451.834 372.589 453.431 373.094 454.677 374.054 C 456.028 375.099 456.964 376.685 457.142 378.518 L 461.107 419.706 C 461.451 423.228 458.866 426.359 455.344 426.698 Z " fill="none" vector-effect="non-scaling-stroke" stroke-width="3" stroke="rgb(88,190,150)" stroke-linejoin="miter" stroke-linecap="square" stroke-miterlimit="3"/><path d=" M 731.412 250.279 L 351.614 286.87 L 356.643 339.071 L 736.441 302.48 L 731.412 250.279 Z " fill="rgb(17,148,246)"/><path d=" M 671.913 412.223 L 566.115 422.416 L 564.124 401.746 L 669.922 391.554 L 671.913 412.223 Z " fill="rgb(255,255,254)"/><path d=" M 710.47 370.188 L 562.467 384.447 L 560.475 363.778 L 708.479 349.519 L 710.47 370.188 Z " fill="rgb(255,255,254)"/><path d=" M 732.634 260.982 L 732.634 260.982 L 727.976 212.636 C 727.113 203.687 719.159 197.13 710.21 197.993 L 362.633 231.479 C 353.683 232.341 347.127 240.295 347.989 249.245 L 352.468 295.734 L 368.396 461.059 C 369.258 470.008 377.212 476.564 386.161 475.702 L 733.739 442.215 C 742.689 441.353 749.245 433.399 748.383 424.45 L 732.634 260.982 Z " fill="none" vector-effect="non-scaling-stroke" stroke-width="5" stroke-dasharray="2,200" stroke="rgb(255,255,254)" stroke-linejoin="miter" stroke-linecap="square" stroke-miterlimit="3"/><path d=" M 714.12 421.735 L 724.816 460.397 L 732.512 445.254 L 750.611 442.785 L 714.12 421.735 Z " fill="rgb(255,255,254)"/><path d=" M 748.285 461.284 L 743.52 464.935 L 728.915 445.877 L 733.68 442.226 L 748.285 461.284 Z " fill="rgb(255,255,254)"/><path d=" M 732.634 260.982 L 732.634 260.982 L 727.976 212.636 C 727.113 203.687 719.159 197.13 710.21 197.993 L 362.633 231.479 C 353.683 232.341 347.127 240.295 347.989 249.245 L 352.468 295.734 L 368.396 461.059 C 369.258 470.008 377.212 476.564 386.161 475.702 L 733.739 442.215 C 742.689 441.353 749.245 433.399 748.383 424.45 L 732.634 260.982 Z " fill="none" vector-effect="non-scaling-stroke" stroke-width="5" stroke-dasharray="20,200" stroke="rgb(255,255,254)" stroke-linejoin="miter" stroke-linecap="square" stroke-miterlimit="3"/><path d=" M 732.634 260.982 L 732.634 260.982 L 727.976 212.636 C 727.113 203.687 719.159 197.13 710.21 197.993 L 362.633 231.479 C 353.683 232.341 347.127 240.295 347.989 249.245 L 352.468 295.734 L 368.396 461.059 C 369.258 470.008 377.212 476.564 386.161 475.702 L 733.739 442.215 C 742.689 441.353 749.245 433.399 748.383 424.45 L 732.634 260.982 Z " fill="none" vector-effect="non-scaling-stroke" stroke-width="5" stroke-dasharray="80,100" stroke="rgb(255,255,254)" stroke-linejoin="miter" stroke-linecap="square" stroke-miterlimit="3"/><path d=" M 455.344 426.698 L 414.156 430.668 C 412.525 430.823 410.979 430.358 409.755 429.455 L 409.755 429.45 L 454.666 374.059 L 454.677 374.054 C 456.028 375.099 456.964 376.685 457.142 378.518 L 461.107 419.706 C 461.451 423.228 458.866 426.359 455.344 426.698 Z " fill="rgb(88,190,150)"/><path d=" M 404.438 396.614 L 432.15 393.538 L 435.447 409.591 L 459.882 406.984" fill="none" vector-effect="non-scaling-stroke" stroke-width="4" stroke="rgb(255,255,254)" stroke-linejoin="miter" stroke-linecap="square" stroke-miterlimit="3"/><path d=" M 2 438.388 C 2 438.388 76.029 455.268 65.023 541.987" fill="none" vector-effect="non-scaling-stroke" stroke-width="4" stroke="rgb(17,148,246)" stroke-linejoin="miter" stroke-linecap="square" stroke-miterlimit="3"/><path d=" M 875.366 541.144 C 875.366 541.144 892.935 404.938 1002.405 392.311 C 1111.875 379.683 1137.185 192.78 1137.185 192.78" fill="none" vector-effect="non-scaling-stroke" stroke-width="4" stroke="rgb(17,148,246)" stroke-linejoin="miter" stroke-linecap="square" stroke-miterlimit="3"/><path d=" M 968.215 -0.5 C 968.215 -0.5 944.559 500.347 1135.962 479.557" fill="none" vector-effect="non-scaling-stroke" stroke-width="3" stroke="rgb(88,190,150)" stroke-linejoin="miter" stroke-linecap="square" stroke-miterlimit="3"/><path d=" M 0 258.114 C 0 258.114 158.338 258.114 174.92 541.144" fill="none" vector-effect="non-scaling-stroke" stroke-width="4" stroke="rgb(255,255,255)" stroke-linejoin="miter" stroke-linecap="square" stroke-miterlimit="3"/><path d=" M 1023.564 542.144 C 1023.564 542.144 957.277 160.993 1134.962 60.335" fill="none" vector-effect="non-scaling-stroke" stroke-width="4" stroke="rgb(255,255,255)" stroke-linejoin="miter" stroke-linecap="square" stroke-miterlimit="3"/><path d=" M 262.014 482.201 C 262.014 485.877 259.034 488.857 255.357 488.857 C 251.681 488.857 248.701 485.877 248.701 482.201 C 248.701 478.525 251.681 475.544 255.357 475.544 C 259.034 475.544 262.014 478.525 262.014 482.201 Z " fill="rgb(255,255,254)"/><path d=" M 843.818 355.605 C 843.818 359.281 840.838 362.262 837.162 362.262 C 833.485 362.262 830.505 359.281 830.505 355.605 C 830.505 351.929 833.485 348.949 837.162 348.949 C 840.838 348.949 843.818 351.929 843.818 355.605 Z " fill="rgb(255,255,254)"/><path d=" M 930.163 130.095 C 930.163 133.771 927.183 136.751 923.507 136.751 C 919.831 136.751 916.85 133.771 916.85 130.095 C 916.85 126.419 919.831 123.439 923.507 123.439 C 927.183 123.439 930.163 126.419 930.163 130.095 Z " fill="rgb(255,255,254)"/><path d=" M 248.701 287.484 C 248.701 291.16 245.721 294.14 242.045 294.14 C 238.368 294.14 235.388 291.16 235.388 287.484 C 235.388 283.808 238.368 280.828 242.045 280.828 C 245.721 280.828 248.701 283.808 248.701 287.484 Z " fill="rgb(17,148,246)"/><path d=" M 1097.958 357.332 C 1099.441 360.695 1097.918 364.625 1094.554 366.108 C 1091.19 367.592 1087.262 366.069 1085.777 362.706 C 1084.294 359.342 1085.817 355.413 1089.181 353.928 C 1092.544 352.445 1096.474 353.969 1097.958 357.332 Z " fill="rgb(17,148,246)"/><path d=" M 69.431 424.754 C 69.431 428.43 66.451 431.41 62.775 431.41 C 59.098 431.41 56.118 428.43 56.118 424.754 C 56.118 421.078 59.098 418.097 62.775 418.097 C 66.451 418.097 69.431 421.078 69.431 424.754 Z " fill="rgb(17,148,246)"/><path d=" M 811.656 462.24 C 811.656 464.922 809.482 467.095 806.801 467.095 C 804.119 467.095 801.945 464.922 801.945 462.24 C 801.945 459.558 804.119 457.384 806.801 457.384 C 809.482 457.384 811.656 459.558 811.656 462.24 Z " fill="rgb(17,148,246)"/><text transform="matrix(6.386,0,0,6.386,56.119,144.387)" style="font-family:'Proxima Nova Rg';font-weight:700;font-size:16px;font-style:normal;font-variant-ligatures:none;fill:#ffffff;stroke:none;">Do the right thing</text></g></svg>